<svg width="381" height="381" viewBox="0 0 381 381" fill="none" xmlns="http://www.w3.org/2000/svg">
<rect width="381" height="381" rx="4" fill="#F2F0F4"/>
<path fill-rule="evenodd" clip-rule="evenodd" d="M136.566 82.0615C151.354 82.0615 163.341 94.0495 163.341 108.838V136.378H135.801C121.013 136.378 109.025 124.39 109.025 109.603V82.0615H136.566ZM190.117 136.378C175.329 136.378 163.341 148.366 163.341 163.154V190.695H190.883C205.67 190.695 217.658 178.707 217.658 163.919V136.378H190.117ZM217.658 108.838C217.658 94.0495 229.646 82.0615 244.434 82.0615H271.975V109.603C271.975 124.39 259.987 136.378 245.2 136.378H217.658V108.838ZM190.883 245.012C205.67 245.012 217.658 257 217.658 271.788V299.329H190.117C175.329 299.329 163.341 287.341 163.341 272.553V245.012H190.883ZM109.025 190.695H81.4836C66.6956 190.695 54.7076 178.707 54.7076 163.919V136.378H82.2486C97.0366 136.378 109.025 148.366 109.025 163.154L109.025 190.695ZM109.025 190.695V218.236C109.025 233.024 121.013 245.012 135.801 245.012L163.341 245.012V217.471C163.341 202.683 151.354 190.695 136.566 190.695H109.025ZM244.434 190.695C229.646 190.695 217.658 202.683 217.658 217.471V245.012H245.2C259.987 245.012 271.975 233.024 271.975 218.236V190.695H299.517C314.304 190.695 326.292 178.707 326.292 163.919V136.378H298.751C283.963 136.378 271.975 148.366 271.975 163.154V190.695H244.434Z" fill="#1B1B1F"/>
</svg>
